<?xml version="1.0"?>
<svg xmlns="http://www.w3.org/2000/svg" viewBox="0 0 64 64" width="512" height="512"><g id="Buy"><polygon points="41 7 30.17 7 13 7 13 23 43 23 43 13.959 43 7 41 7" style="fill:#a9e47f"/><path d="M11.5,60.66a1.965,1.965,0,0,0,1.11.34H27.46a1.923,1.923,0,0,0,1-.27L41.86,53a2.013,2.013,0,0,0,1-1.74,1.967,1.967,0,0,0-.27-.99,1.988,1.988,0,0,0-2.73-.73L31.425,54.4A2,2,0,0,1,30,55h0a2,2,0,0,0,1.425-.6l-.015.008-.02.02.02-.02.015-.008A2,2,0,0,0,30,51H22l-.453-.3a10,10,0,0,0-11.094,0L10,51H9v8Z" style="fill:#efebe5"/><polygon points="9 59 9 51 9 49 3 49 3 61 9 61 9 59" style="fill:#006df0"/><polygon points="55 5 55 12.987 55 15 61 15 61 3 55 3 55 5" style="fill:#006df0"/><rect x="15" y="29" width="26" height="18" style="fill:#ffe2bd"/><rect x="26" y="29" width="4" height="6" style="fill:#ffaf46"/><path d="M51.422,3.211A2,2,0,0,0,50.528,3H35.872a2,2,0,0,0-1.25.438L30.17,7H40L37.527,9.473a2.16,2.16,0,0,0,0,3.054l.006.006a2.16,2.16,0,0,0,2.992.059L43,10.092v3.867l.085.041,1.212.493a8,8,0,0,0,7.131-.55L53,13l2-.013V5Z" style="fill:#efebe5"/><path d="M28,47H41V35C41,41.633,35.186,47,28,47Z" style="fill:#ffdaaa"/><path d="M34,23h9V14A8.994,8.994,0,0,1,34,23Z" style="fill:#91dc5a"/><path d="M28,12a1,1,0,0,1,1,1h2a3,3,0,0,0-2-2.816V9H27v1.184A2.993,2.993,0,0,0,28,16a1,1,0,1,1-1,1H25a3,3,0,0,0,2,2.816V21h2V19.816A2.993,2.993,0,0,0,28,14a1,1,0,0,1,0-2Z" style="fill:#5eac24"/><path d="M22,14H20a1,1,0,0,0,0,2h2a1,1,0,0,0,0-2Z" style="fill:#5eac24"/><path d="M36,14H34a1,1,0,0,0,0,2h2a1,1,0,0,0,0-2Z" style="fill:#5eac24"/><path d="M22,40H18a1,1,0,0,0,0,2h4a1,1,0,0,0,0-2Z" style="fill:#f1f2f2"/><path d="M26,40H25a1,1,0,0,0,0,2h1a1,1,0,0,0,0-2Z" style="fill:#f1f2f2"/><path d="M22,43H18a1,1,0,0,0,0,2h4a1,1,0,0,0,0-2Z" style="fill:#f1f2f2"/><path d="M26,43H25a1,1,0,0,0,0,2h1a1,1,0,0,0,0-2Z" style="fill:#f1f2f2"/><path d="M24,55h6a2,2,0,0,0,1.425-.6l-.015.008-.02.02.02-.02.015-.008a2.029,2.029,0,0,0,.3-.4H24Z" style="fill:#e4dbd0"/><path d="M46.227,8.391,45,8l-2,2.092V11l2-2,1.227.391A6,6,0,0,0,50,9.347v-1A6,6,0,0,1,46.227,8.391Z" style="fill:#e2dfdb"/></g></svg>
