<svg height="512pt" viewBox="-69 0 511 512" width="512pt" xmlns="http://www.w3.org/2000/svg"><path d="m244.203125 208.636719c-4.816406-6.902344-14.316406-8.589844-21.214844-3.773438l-20.917969 14.601563v-50.300782c0-8.414062-6.820312-15.238281-15.238281-15.238281-8.414062 0-15.238281 6.824219-15.238281 15.238281v50.300782l-20.914062-14.601563c-6.898438-4.820312-16.398438-3.128906-21.214844 3.773438-4.820313 6.898437-3.128906 16.398437 3.769531 21.214843l38.359375 26.777344v55.242188c0 8.417968 6.824219 15.238281 15.238281 15.238281 8.417969 0 15.238281-6.820313 15.238281-15.238281v-55.242188l38.359376-26.777344c6.902343-4.816406 8.589843-14.316406 3.773437-21.214843zm0 0" fill="#b04617"/><path d="m202.070312 311.871094v-55.242188l38.359376-26.777344c6.902343-4.816406 8.589843-14.316406 3.773437-21.214843-4.816406-6.902344-14.316406-8.589844-21.21875-3.773438l-20.914063 14.601563v-50.300782c0-8.414062-6.820312-15.238281-15.238281-15.238281v173.183594c8.417969 0 15.238281-6.820313 15.238281-15.238281zm0 0" fill="#83360b"/><path d="m246.335938 512h-119.003907c-7.671875 0-14.144531-5.703125-15.117187-13.3125l-16.300782-127.84375c-.554687-4.339844.785157-8.710938 3.679688-11.996094s7.058594-5.167968 11.4375-5.167968h151.605469c4.378906 0 8.542969 1.882812 11.433593 5.167968 2.894532 3.285156 4.234376 7.652344 3.679688 11.996094l-16.300781 127.84375c-.96875 7.609375-7.445313 13.3125-15.113281 13.3125zm0 0" fill="#ffbe26"/><path d="m262.636719 353.679688h-75.804688v158.320312h59.503907c7.667968 0 14.144531-5.703125 15.113281-13.3125l16.300781-127.84375c.554688-4.339844-.785156-8.710938-3.679688-11.996094-2.890624-3.285156-7.054687-5.167968-11.433593-5.167968zm0 0" fill="#ff962e"/><path d="m281.308594 384.15625h-188.953125c-8.414063 0-15.238281-6.824219-15.238281-15.238281v-57.046875c0-8.414063 6.824218-15.234375 15.238281-15.234375h188.953125c8.417968 0 15.238281 6.820312 15.238281 15.234375v57.046875c0 8.414062-6.820313 15.238281-15.238281 15.238281zm0 0" fill="#ff962e"/><path d="m281.308594 296.636719h-94.476563v87.519531h94.476563c8.417968 0 15.238281-6.824219 15.238281-15.238281v-57.046875c0-8.414063-6.820313-15.234375-15.238281-15.234375zm0 0" fill="#ff7b00"/><path d="m186.832031 184.402344c-3.773437 0-7.546875-1.390625-10.484375-4.179688-1.679687-1.589844-41.105468-39.519531-41.105468-88.019531s39.425781-86.433594 41.105468-88.023437c5.878906-5.570313 15.085938-5.574219 20.964844 0 1.679688 1.589843 41.105469 39.523437 41.105469 88.023437s-39.425781 86.429687-41.105469 88.019531c-2.9375 2.789063-6.710938 4.179688-10.480469 4.179688zm0 0" fill="#c0f060"/><path d="m197.3125 4.179688c-2.9375-2.785157-6.707031-4.179688-10.480469-4.179688v184.402344c3.773438 0 7.542969-1.394532 10.480469-4.179688 1.679688-1.589844 41.105469-39.519531 41.105469-88.019531s-39.425781-86.433594-41.105469-88.023437zm0 0" fill="#6ccc45"/><path d="m117.726562 234.660156c-19.519531 0-46.140624-3.511718-68.40625-19.054687-39.769531-27.761719-48.304687-81.804688-48.648437-84.089844-1.203125-8.007813 4.066406-15.5625 12.003906-17.191406 2.261719-.464844 55.933594-11.082031 95.703125 16.679687 39.769532 27.761719 48.300782 81.804688 48.644532 84.089844 1.207031 8.007812-4.066407 15.5625-12 17.191406-.996094.207032-11.953126 2.375-27.296876 2.375zm0 0" fill="#c0f060"/><path d="m255.9375 234.660156c-15.34375 0-26.296875-2.167968-27.296875-2.375-7.933594-1.628906-13.203125-9.183594-12-17.191406.34375-2.285156 8.878906-56.328125 48.648437-84.089844 39.765626-27.761718 93.4375-17.144531 95.703126-16.679687 7.933593 1.628906 13.207031 9.183593 12 17.191406-.34375 2.285156-8.878907 56.328125-48.644532 84.089844-22.265625 15.542969-48.890625 19.054687-68.410156 19.054687zm0 0" fill="#c0f060"/><g fill="#6ccc45"><path d="m370.765625 121.074219-151.957031 104.359375c2.136718 3.417968 5.597656 5.980468 9.832031 6.851562 1 .207032 11.953125 2.375 27.296875 2.375 19.519531 0 46.144531-3.511718 68.410156-19.054687 39.765625-27.761719 48.304688-81.804688 48.648438-84.089844.566406-3.773437-.320313-7.441406-2.230469-10.441406zm0 0"/><path d="m2.898438 121.074219 151.960937 104.359375c-2.140625 3.417968-5.601563 5.980468-9.835937 6.851562-1 .207032-11.953126 2.375-27.296876 2.375-19.519531 0-46.144531-3.511718-68.410156-19.054687-39.765625-27.761719-48.300781-81.804688-48.648437-84.089844-.566407-3.773437.320312-7.441406 2.230469-10.441406zm0 0"/></g></svg>